<svg width="61" height="18" viewBox="0 0 61 18" fill="none" xmlns="http://www.w3.org/2000/svg">
  <rect width="61" height="18" rx="9" fill="#111111"/>
  <path d="M26.1818 13.5669C26.1081 13.5669 26.0438 13.5602 25.9902 13.5481C25.9352 13.5347 25.8897 13.5119 25.8508 13.4798C25.8119 13.4476 25.7758 13.402 25.7436 13.3431C25.7114 13.2855 25.682 13.2131 25.6552 13.126L25.5841 12.8861C25.481 12.9853 25.3617 13.0831 25.2277 13.1809C25.0937 13.2788 24.9463 13.3659 24.7841 13.4436C24.622 13.5213 24.4451 13.5843 24.2535 13.6312C24.0619 13.6781 23.8555 13.7022 23.6344 13.7022C23.2538 13.7022 22.9068 13.6325 22.5919 13.4918C22.277 13.3511 22.0063 13.1394 21.7825 12.8567C21.5574 12.5739 21.3845 12.2215 21.2612 11.8007C21.1379 11.3799 21.0763 10.8881 21.0763 10.3266C21.0763 9.91257 21.1219 9.53736 21.2117 9.20235C21.3014 8.86734 21.4247 8.56851 21.5802 8.30586C21.7356 8.04321 21.9165 7.81406 22.1215 7.62244C22.3265 7.43081 22.5463 7.27134 22.7822 7.14672C23.018 7.0221 23.2592 6.92829 23.5071 6.86799C23.755 6.80769 23.9989 6.77687 24.2361 6.77687C24.4089 6.77687 24.5604 6.78357 24.689 6.79563C24.8176 6.80769 24.9329 6.82645 25.0321 6.85057C25.1312 6.87469 25.2197 6.90015 25.2974 6.92829C25.3751 6.95643 25.4528 6.98323 25.5305 7.00869V4.64084C25.5305 4.54971 25.5359 4.47467 25.5466 4.41437C25.5573 4.35407 25.5788 4.30582 25.6123 4.2683C25.6444 4.23212 25.69 4.20666 25.749 4.19326C25.8079 4.17986 25.883 4.1745 25.9741 4.1745H26.9885C27.0796 4.1745 27.1533 4.1812 27.2096 4.19326C27.2659 4.20532 27.3101 4.23078 27.3422 4.2683C27.3744 4.30448 27.3958 4.35407 27.4079 4.41437C27.4186 4.47467 27.424 4.54971 27.424 4.64084V13.1059C27.424 13.2922 27.3958 13.4141 27.3396 13.4744C27.2833 13.5347 27.1788 13.5655 27.0273 13.5655H26.1818V13.5669ZM22.9148 10.269C22.9148 10.6107 22.951 10.9015 23.022 11.1441C23.093 11.3866 23.1909 11.5849 23.3168 11.7404C23.4428 11.8958 23.5888 12.0097 23.7577 12.0834C23.9265 12.1571 24.1101 12.1933 24.3084 12.1933C24.5161 12.1933 24.7265 12.1598 24.9436 12.0928C25.1594 12.0258 25.363 11.9213 25.552 11.7793V8.5082C25.4528 8.4479 25.3081 8.39698 25.1178 8.35544C24.9275 8.3139 24.7332 8.2938 24.5349 8.2938C24.0257 8.2938 23.6277 8.46264 23.3436 8.80167C23.0569 9.14205 22.9148 9.62982 22.9148 10.269Z" fill="white"/>
  <path d="M28.9905 8.28036C28.9905 8.18924 28.9945 8.11152 29.0039 8.04452C29.0119 7.97751 29.0293 7.91855 29.0561 7.86629C29.0829 7.81403 29.1191 7.76713 29.166 7.72425C29.2129 7.68136 29.2759 7.6358 29.3536 7.5889C29.9714 7.22575 30.5945 6.98722 31.2256 6.87332C31.8554 6.75941 32.5053 6.77683 33.1754 6.92826C33.2665 6.9497 33.3335 6.97382 33.379 6.99928C33.4246 7.02474 33.4541 7.0569 33.4702 7.09576C33.4849 7.13463 33.4889 7.18019 33.4836 7.23111C33.4769 7.28337 33.4675 7.34769 33.4541 7.42542L33.3509 8.00834C33.3335 8.09008 33.3174 8.15842 33.3027 8.21202C33.2879 8.26562 33.2665 8.30716 33.241 8.33531C33.2156 8.36345 33.1794 8.38221 33.1338 8.39025C33.0883 8.39963 33.0253 8.39963 32.9422 8.39025C32.8001 8.37283 32.6487 8.36211 32.4893 8.35809C32.3298 8.35407 32.161 8.36479 31.9841 8.39025C31.8072 8.41571 31.6249 8.46395 31.4373 8.53229C31.2497 8.60197 31.0581 8.70114 30.8638 8.82978V13.1045C30.8638 13.2908 30.829 13.4127 30.7606 13.473C30.691 13.5333 30.5838 13.5642 30.4364 13.5642H29.426C29.2625 13.5642 29.1486 13.5347 29.0856 13.473C29.0226 13.4127 28.9918 13.2895 28.9918 13.1045V8.28036H28.9905Z" fill="white"/>
  <path d="M35.2028 4.24548C35.578 4.24548 35.8554 4.32053 36.0349 4.47195C36.2145 4.62338 36.3043 4.84582 36.3043 5.13929C36.3043 5.41132 36.2185 5.62305 36.0483 5.77447C35.8781 5.9259 35.6048 6.00094 35.2296 6.00094C34.841 6.00094 34.5555 5.9259 34.3746 5.77447C34.1937 5.62305 34.1026 5.40596 34.1026 5.12053C34.1013 4.53761 34.4684 4.24548 35.2028 4.24548ZM34.7043 13.5668C34.5354 13.5668 34.4229 13.5374 34.3639 13.4757C34.3063 13.4154 34.2768 13.2921 34.2768 13.1072V7.42005C34.2768 7.23378 34.3063 7.1105 34.3679 7.04752C34.4282 6.98454 34.5408 6.95371 34.7043 6.95371H35.7334C35.9023 6.95371 36.0135 6.98454 36.0671 7.04752C36.1207 7.1105 36.1475 7.23378 36.1475 7.42005V13.1072C36.1475 13.2935 36.118 13.4154 36.0604 13.4757C36.0014 13.536 35.8915 13.5668 35.7267 13.5668H34.7043Z" fill="white"/>
  <path d="M39.7441 13.5668C39.5538 13.5668 39.4078 13.532 39.3073 13.4636C39.2054 13.3953 39.1143 13.2801 39.0326 13.1206C38.5582 12.2348 38.1508 11.3088 37.8118 10.3413C37.4728 9.37382 37.2169 8.39023 37.044 7.38787C37.0091 7.21099 37.0158 7.09306 37.0641 7.03544C37.111 6.97648 37.2222 6.94432 37.3937 6.93494L38.5529 6.90948C38.6346 6.90546 38.7043 6.90814 38.7606 6.91886C38.8168 6.92958 38.8624 6.94968 38.8959 6.9805C38.9307 7.01132 38.9575 7.05554 38.9763 7.11316C38.9951 7.17079 39.0098 7.24583 39.0178 7.33695C39.0393 7.479 39.0728 7.66258 39.1183 7.88369C39.1639 8.10614 39.2175 8.35137 39.2805 8.61937C39.3435 8.88738 39.4145 9.17147 39.4935 9.47164C39.5739 9.77181 39.6597 10.068 39.7522 10.3588C39.8446 10.6495 39.9438 10.9296 40.047 11.1976C40.1502 11.4656 40.2587 11.7055 40.3713 11.9172H40.4744C40.6299 11.6197 40.7773 11.27 40.918 10.8707C41.0587 10.4713 41.1873 10.0599 41.3039 9.63647C41.4205 9.21301 41.5237 8.80162 41.6148 8.40229C41.7059 8.00295 41.7769 7.65454 41.8279 7.35571C41.8493 7.17481 41.8922 7.05286 41.9538 6.98988C42.0168 6.9269 42.128 6.9001 42.2875 6.90948L43.4279 6.93494C43.519 6.94298 43.5927 6.95236 43.6516 6.9604C43.7106 6.96844 43.7535 6.9872 43.7816 7.01534C43.8098 7.04348 43.8258 7.08368 43.8299 7.13461C43.8339 7.18687 43.8299 7.25789 43.8165 7.34767C43.6356 8.40631 43.3729 9.41134 43.0299 10.3655C42.6868 11.3196 42.2835 12.2402 41.8225 13.1246C41.7354 13.2894 41.6416 13.4033 41.5411 13.4677C41.4393 13.532 41.2959 13.5641 41.111 13.5641H39.7441V13.5668Z" fill="white"/>
  <path d="M44.855 7.77513C44.8296 7.71081 44.8108 7.65185 44.8001 7.60093C44.7894 7.54867 44.792 7.50042 44.8095 7.45486C44.8269 7.4093 44.859 7.36776 44.9073 7.3289C44.9542 7.29004 45.0212 7.25386 45.1083 7.21901C45.2115 7.17613 45.3307 7.12789 45.4647 7.07697C45.5987 7.02605 45.7502 6.97781 45.9177 6.93493C46.0852 6.89204 46.2754 6.85452 46.4845 6.82504C46.6935 6.79556 46.9254 6.77948 47.1813 6.77948C47.531 6.77948 47.8728 6.81432 48.2051 6.88266C48.5374 6.95235 48.8335 7.07965 49.0922 7.2686C49.3508 7.4562 49.5585 7.71483 49.7139 8.04582C49.8694 8.37681 49.9471 8.80027 49.9471 9.31887V13.1085C49.9471 13.1996 49.9417 13.2747 49.931 13.335C49.9203 13.3953 49.9002 13.4435 49.8694 13.477C49.8386 13.5119 49.7984 13.536 49.7461 13.548C49.6938 13.5601 49.6268 13.5668 49.5451 13.5668H48.7089C48.5575 13.5668 48.4449 13.5373 48.3726 13.4797C48.2989 13.4207 48.2359 13.3055 48.185 13.1326L48.114 12.8995C48.0443 12.9638 47.9558 13.0429 47.8446 13.1353C47.7334 13.2278 47.6047 13.3162 47.456 13.4006C47.3073 13.4851 47.1371 13.5561 46.9441 13.6137C46.7525 13.6727 46.5394 13.7008 46.3063 13.7008C46.0088 13.7008 45.7341 13.6646 45.4835 13.5909C45.2329 13.5172 45.0158 13.3993 44.8322 13.2345C44.6487 13.071 44.5066 12.8566 44.4048 12.5926C44.3029 12.3286 44.252 12.0097 44.252 11.6345C44.252 11.2713 44.3244 10.9711 44.4691 10.7313C44.6138 10.4914 44.8014 10.2958 45.0332 10.1443C45.2637 9.99291 45.521 9.88168 45.8038 9.80798C46.0865 9.73428 46.3666 9.6847 46.6426 9.65924L48.0872 9.52389V9.13528C48.0872 9.0187 48.0671 8.90881 48.0255 8.80563C47.984 8.70244 47.9156 8.61266 47.8178 8.53628C47.72 8.4599 47.5927 8.40093 47.4319 8.35805C47.2724 8.31517 47.0741 8.29373 46.8356 8.29373C46.7016 8.29373 46.5743 8.30177 46.4537 8.31919C46.3331 8.33661 46.2192 8.35805 46.1133 8.38351C46.0074 8.40897 45.9123 8.43578 45.8279 8.46124C45.7435 8.4867 45.6698 8.50814 45.6041 8.52556C45.5344 8.547 45.4741 8.56174 45.4232 8.5671C45.3709 8.5738 45.324 8.56978 45.2811 8.55772C45.2383 8.54432 45.1994 8.5202 45.1646 8.48268C45.1297 8.4465 45.0976 8.39289 45.0667 8.32455L44.855 7.77513ZM48.0872 10.6643L47.0178 10.7608C46.9053 10.7742 46.794 10.7956 46.6842 10.8251C46.5743 10.8559 46.4751 10.9001 46.3867 10.9618C46.2982 11.0234 46.2259 11.0998 46.1696 11.1949C46.1133 11.2901 46.0852 11.408 46.0852 11.5514C46.0852 11.7028 46.1066 11.8261 46.1495 11.9199C46.1924 12.015 46.2513 12.0914 46.3237 12.1504C46.3974 12.2093 46.4831 12.2482 46.5823 12.2696C46.6815 12.2911 46.7873 12.3018 46.8999 12.3018C47.0339 12.3018 47.1599 12.2897 47.2791 12.2656C47.3984 12.2415 47.5083 12.2107 47.6088 12.1718C47.7106 12.133 47.8004 12.0901 47.8808 12.0418C47.9612 11.9949 48.0282 11.9494 48.0845 11.9052V10.6643H48.0872Z" fill="white"/>
  <path d="M18.2167 9.22479C18.2167 11.7293 16.2107 13.7662 13.7182 13.8158V11.4546C14.8934 11.389 15.8248 10.4148 15.8248 9.22479C15.8248 8.63651 15.5969 8.10184 15.2258 7.7025L16.9102 6.01807C17.7182 6.84487 18.2167 7.97721 18.2167 9.22479Z" fill="#007CFF"/>
  <path d="M13.5909 11.4226V13.8695C11.0944 13.8708 9.06297 11.8487 8.99999 9.33209H11.3638C11.4522 10.502 12.4157 11.4226 13.5909 11.4226Z" fill="#2E93FF"/>
  <path d="M13.3832 4.83484V7.00035C12.3179 7.09817 11.4683 7.94508 11.3678 9.00908H9.2077C9.2077 6.7042 11.077 4.83484 13.3832 4.83484Z" fill="#38B6FF"/>
  <path d="M17.347 5.55981L15.215 7.69182C14.8344 7.28981 14.3065 7.02716 13.7168 6.995V4.00402C13.7771 4.00134 13.8388 4 13.8991 4C15.2739 4 16.5068 4.60302 17.347 5.55981Z" fill="#64E5F2"/>
</svg>